<svg width="24" height="24" viewBox="0 0 24 24" fill="none" xmlns="http://www.w3.org/2000/svg">
<path d="M16.3238 0.284493L5.30192 11.2763C5.10834 11.4694 5 11.7283 5 11.9979C5 12.2675 5.10834 12.5265 5.30192 12.7196L16.3238 23.7155C16.414 23.8055 16.5218 23.8771 16.6409 23.926C16.76 23.9748 16.888 24 17.0172 24C17.1465 24 17.2744 23.9748 17.3935 23.926C17.5126 23.8771 17.6204 23.8055 17.7106 23.7155C17.8961 23.5309 18 23.283 18 23.0249C18 22.7668 17.8961 22.5189 17.7106 22.3343L7.34593 11.9979L17.7106 1.66364C17.8955 1.47909 17.999 1.23167 17.999 0.974066C17.999 0.716463 17.8955 0.469038 17.7106 0.284493C17.6204 0.194459 17.5126 0.122899 17.3935 0.0740364C17.2744 0.0251741 17.1465 0 17.0172 0C16.888 0 16.76 0.0251741 16.6409 0.0740364C16.5218 0.122899 16.414 0.194459 16.3238 0.284493Z" fill="white"/>
</svg>
