<svg width="20" height="20" viewBox="0 0 20 20" fill="none" xmlns="http://www.w3.org/2000/svg">
<path d="M15 3.33333V4.16667H13.3334V3.33333C13.3334 2.875 12.9584 2.5 12.5 2.5H7.50004C7.04171 2.5 6.66671 2.875 6.66671 3.33333V4.16667H5.00004V3.33333C5.00004 2.875 4.62504 2.5 4.16671 2.5C3.70837 2.5 3.33337 2.875 3.33337 3.33333V16.6667C3.33337 17.125 3.70837 17.5 4.16671 17.5C4.62504 17.5 5.00004 17.125 5.00004 16.6667V15.8333H6.66671V16.6667C6.66671 17.125 7.04171 17.5 7.50004 17.5H12.5C12.9584 17.5 13.3334 17.125 13.3334 16.6667V15.8333H15V16.6667C15 17.125 15.375 17.5 15.8334 17.5C16.2917 17.5 16.6667 17.125 16.6667 16.6667V3.33333C16.6667 2.875 16.2917 2.5 15.8334 2.5C15.375 2.5 15 2.875 15 3.33333ZM6.66671 14.1667H5.00004V12.5H6.66671V14.1667ZM6.66671 10.8333H5.00004V9.16667H6.66671V10.8333ZM6.66671 7.5H5.00004V5.83333H6.66671V7.5ZM15 14.1667H13.3334V12.5H15V14.1667ZM15 10.8333H13.3334V9.16667H15V10.8333ZM15 7.5H13.3334V5.83333H15V7.5Z" fill="white"/>
</svg>
